<svg width="119" height="34" viewBox="0 0 119 34" xmlns="http://www.w3.org/2000/svg">
  <g transform="translate(-61, -7)">
    <path d="M62.4011707,34.3027317 C63.1802927,33.3228293 64.1604878,33.2350244 65.3417561,34.0393171 C66.5499604,34.8540257 67.9727361,35.2919204 69.4299512,35.297561 C70.2764799,35.3445714 71.1173157,35.1332907 71.8410732,34.6917073 C72.3974159,34.3420491 72.7304408,33.726952 72.719122,33.0699512 C72.7314678,32.4014709 72.4063573,31.7717138 71.8542439,31.3946341 C70.9406305,30.8418075 69.9255439,30.4775705 68.868878,30.3234146 C64.0103415,29.3282927 61.5810732,26.9353171 61.5810732,23.1444878 C61.5460169,21.3148416 62.3754046,19.575698 63.8192195,18.4513171 C65.4908804,17.1671935 67.5630886,16.516168 69.6687805,16.613561 C71.8807544,16.6025804 74.0495945,17.2253831 75.9187317,18.4082927 C76.4373573,18.6688373 76.7974099,19.1647279 76.8845854,19.7385366 C76.9335553,20.3290113 76.7336596,20.9131016 76.3331707,21.3497561 L76.0302439,21.7387317 C75.7146018,22.2073075 75.217612,22.5227721 74.6592543,22.6089683 C74.1008965,22.6951644 73.5319111,22.5442592 73.0896585,22.1926829 C72.2139939,21.6661227 71.2138214,21.3824374 70.1920976,21.3708293 C69.486294,21.3401355 68.78696,21.5168768 68.1804878,21.8792195 C67.6966155,22.1566814 67.3991728,22.6727631 67.4016585,23.2305366 C67.4016585,24.5282927 68.5914146,25.4221463 70.9709268,25.9120976 C73.0822244,26.211761 75.0652151,27.1041524 76.6896585,28.4856585 C77.9343854,29.7069882 78.6061412,31.3967392 78.5397073,33.1393171 C78.5750611,35.0742893 77.7002289,36.91368 76.176878,38.1073171 C74.375632,39.4803647 72.1458156,40.1701237 69.8839024,40.0539512 C67.1508447,40.1275563 64.4695159,39.2997076 62.2536585,37.6981463 C61.7829107,37.3911846 61.4795098,36.8847608 61.4309268,36.324878 C61.4228131,35.7436238 61.6402858,35.1818454 62.0376585,34.757561 L62.4011707,34.3027317 Z" fill="#ffffff"/>
    <path d="M86.4491707,30.1074146 C86.6682507,31.5961045 87.4451226,32.9458214 88.6223415,33.8830244 C89.8471502,34.8540911 91.3745862,35.3632364 92.9370732,35.3212683 C94.6629345,35.3313676 96.3488507,34.8021397 97.7593171,33.8075122 C98.6173392,33.0469389 99.9214893,33.094482 100.721854,33.9155122 L101.284683,34.4774634 C101.744339,34.8605563 102.02602,35.4159785 102.063512,36.0131707 C102.028602,36.5975003 101.724721,37.1326161 101.24078,37.4619512 C98.8462019,39.225127 95.931602,40.138566 92.9590244,40.0574634 C91.2230096,40.0721063 89.4993956,39.7639459 87.876,39.1486829 C86.3943146,38.5994612 85.040478,37.753276 83.897561,36.6620488 C82.8098043,35.5989886 81.9458119,34.3289736 81.3564878,32.9268293 C80.1268614,29.9896199 80.1306587,26.6812082 81.3670244,23.7468293 C81.9579329,22.3478686 82.8217905,21.0807382 83.9080976,20.0195122 C85.0276589,18.9453943 86.3463174,18.100391 87.7899512,17.532 C89.3226563,16.916237 90.9604496,16.6043048 92.6121951,16.613561 C94.7302262,16.5833627 96.8191699,17.1089288 98.6707317,18.1378537 C100.417156,19.1001832 101.867738,20.5210135 102.866049,22.247122 C103.863531,23.9789481 104.378951,25.9463349 104.358732,27.9447805 L104.358732,28.1607805 C104.379959,28.7141699 104.149064,29.2473256 103.730927,29.610439 C103.273121,29.9599024 102.706357,30.1359661 102.131122,30.1074146 L86.4491707,30.1074146 Z M92.5691707,21.3497561 C91.2231889,21.3314404 89.9098078,21.7641854 88.8383415,22.5790244 C87.7513497,23.3991442 86.96477,24.5544814 86.6001951,25.866439 L98.2352195,25.866439 C97.9467941,24.5814692 97.239101,23.4289581 96.2236098,22.590439 C95.1921464,21.7547618 93.8962165,21.3147933 92.5691707,21.3497561 L92.5691707,21.3497561 Z" fill="#ffffff"/>
    <path d="M107.013951,10.0826341 C106.977003,9.50652948 107.176438,8.94024803 107.566244,8.51443902 C107.991712,8.12473233 108.557808,7.92556771 109.133561,7.96302439 L110.842244,7.96302439 C111.418209,7.92594226 111.984435,8.12504067 112.410439,8.51443902 C112.800016,8.94033673 112.999142,9.50664079 112.961854,10.0826341 L112.961854,37.4171707 C113.025601,37.9964572 112.82283,38.573348 112.410654,38.9853527 C111.998479,39.3973574 111.421504,39.5998895 110.842244,39.5359024 L109.133561,39.5359024 C108.554381,39.5995464 107.977615,39.3969027 107.565522,38.984981 C107.15343,38.5730594 106.950547,37.9963766 107.013951,37.4171707 L107.013951,10.0826341 Z" fill="#ffffff"/>
    <path d="M120.940683,17.1324878 C121.519862,17.0688439 122.096629,17.2714876 122.508722,17.6834092 C122.920814,18.0953308 123.123697,18.6720137 123.060293,19.2512195 L123.060293,19.5971707 C123.783246,18.7013284 124.690255,17.97129 125.719902,17.4564878 C126.764707,16.9251815 127.921243,16.650948 129.093366,16.6565854 C130.572742,16.6343222 132.034021,16.9839423 133.343122,17.6733659 C134.586739,18.3347263 135.634485,19.3116135 136.381171,20.5059512 C137.206204,19.3221776 138.303919,18.3542613 139.581659,17.6839024 C140.868316,16.9804082 142.311433,16.612306 143.777854,16.613561 C146.144406,16.5262881 148.436265,17.4503114 150.080488,19.1546341 C151.730446,20.9153908 152.607775,23.2628401 152.517073,25.6741463 L152.517073,37.4171707 C152.58082,37.9964572 152.378049,38.573348 151.965874,38.9853527 C151.553698,39.3973574 150.976723,39.5998895 150.397463,39.5359024 L148.68878,39.5359024 C148.109521,39.5998895 147.532546,39.3973574 147.12037,38.9853527 C146.708195,38.573348 146.505424,37.9964572 146.569171,37.4171707 L146.569171,26.28 C146.60585,25.1285156 146.208461,24.0052949 145.455805,23.1330732 C144.71201,22.2890396 143.627967,21.8244035 142.503805,21.8678049 C141.558256,21.8803827 140.64147,22.1947972 139.88722,22.7651707 C139.02636,23.3906409 138.298403,24.180977 137.745659,25.0902439 C137.775512,25.7247805 137.790146,26.2150244 137.789561,26.5609756 L137.789561,37.4171707 C137.853308,37.9964572 137.650537,38.573348 137.238361,38.9853527 C136.826186,39.3973574 136.249211,39.5998895 135.669951,39.5359024 L133.962146,39.5359024 C133.382886,39.5998895 132.805912,39.3973574 132.393736,38.9853527 C131.981561,38.573348 131.77879,37.9964572 131.842537,37.4171707 L131.842537,26.28 C131.886414,25.1189266 131.484275,23.9850844 130.718634,23.111122 C129.969585,22.2830299 128.893068,21.8280006 127.777171,21.8678049 C126.836287,21.8787825 125.923405,22.1894332 125.171122,22.7546341 C124.325371,23.3646327 123.609095,24.1364201 123.063805,25.0252683 L123.063805,37.4171707 C123.127552,37.9964572 122.924781,38.573348 122.512605,38.9853527 C122.10043,39.3973574 121.523455,39.5998895 120.944195,39.5359024 L119.235512,39.5359024 C118.656252,39.5998895 118.079277,39.3973574 117.667102,38.9853527 C117.254927,38.573348 117.052155,37.9964572 117.115902,37.4171707 L117.115902,19.2512195 C117.052498,18.6720137 117.255381,18.0953308 117.667473,17.6834092 C118.079566,17.2714876 118.656333,17.0688439 119.235512,17.1324878 L120.940683,17.1324878 Z" fill="#ffffff"/>
    <path d="M158.201561,36.6602927 C155.876466,34.522893 154.57759,31.4923955 154.633171,28.3346341 C154.57745,25.1765909 155.876329,22.1457684 158.201561,20.0080976 C160.587975,17.7412545 163.779761,16.5195274 167.069854,16.613561 C169.286957,16.5843968 171.474988,17.1201486 173.427805,18.1703415 C175.272225,19.1533568 176.815573,20.6181109 177.893561,22.4086829 C180.042854,26.0676218 180.042854,30.6034026 177.893561,34.2623415 C176.815815,36.0531077 175.272407,37.5179192 173.427805,38.5006829 C171.475055,39.5511446 169.287029,40.0871974 167.069854,40.0583415 C163.779196,40.1518242 160.587198,38.9287515 158.201561,36.6602927 Z M160.602146,28.3346341 C160.574994,30.6665876 161.803517,32.8331146 163.818644,34.0069999 C165.833771,35.1808852 168.324375,35.1808852 170.339502,34.0069999 C172.354629,32.8331146 173.583152,30.6665876 173.556,28.3346341 C173.583152,26.0026807 172.354629,23.8361536 170.339502,22.6622684 C168.324375,21.4883831 165.833771,21.4883831 163.818644,22.6622684 C161.803517,23.8361536 160.574994,26.0026807 160.602146,28.3346341 L160.602146,28.3346341 Z" fill="#ffffff"/>
  </g>
</svg>
