<svg xmlns="http://www.w3.org/2000/svg" width="178" height="75" fill="none" alt="Triple Espresso Logo"><path fill="#2844A0" d="M77.395 45.284h.156c1.14-2.23 3.182-3.707 6.278-3.707.457 0 .93.058 1.248.154v5.76c-.484-.057-1.396-.156-2.218-.156-2.98 0-5.206 1.246-5.206 5.297v10.171h-6.197V42.068h5.94zM13.535 23.97v4.7c-.577.06-2.392.078-3.91.078-4.511 0-6.396-.945-6.396-5.251V11.952H0V7.935h3.229V2.083h6.198v5.852h4.107v4.017H9.427v10.03c0 1.812.7 2.007 2.47 2.007.618 0 1.177 0 1.637-.018m9.833-12.82h.156c1.14-2.23 3.183-3.707 6.278-3.707.457 0 .93.057 1.248.154v5.76c-.484-.057-1.396-.157-2.218-.157-2.98 0-5.205 1.246-5.205 5.298v10.17h-6.199V7.936h5.94zM40.233 0v5.04h-6.198V0zm0 7.935V28.67h-6.198V7.935zM75.333 0v28.67h-6.197V0zm90.802 41.61v4.605c2.191.434 3.548 2.436 3.548 6.243 0 4.339-1.761 6.291-4.514 6.291-2.77 0-4.532-1.952-4.532-6.291 0-3.8 1.351-5.801 3.546-6.24v-4.606c-6.204.387-9.863 4.455-9.863 10.846 0 6.702 4.047 10.837 10.849 10.837 6.763 0 10.831-4.135 10.831-10.837-.001-6.397-3.684-10.466-9.865-10.848M90.031 7.445v4.122c2.027.405 3.18 2.144 3.307 4.245h-8.55c.125-2.098 1.277-3.837 3.29-4.245V7.445c-6.008.383-9.688 4.41-9.688 10.897 0 6.667 4.154 10.819 10.683 10.819 6.89 0 9.817-3.919 10.302-6.885H93.09c-.383 1.27-1.435 2.696-4.016 2.696-2.6 0-4.288-2.123-4.342-5.398H99.68c.487-7.645-3.589-11.745-9.648-12.13M11.923 41.593v4.122c2.028.405 3.181 2.145 3.307 4.246H6.68c.126-2.099 1.278-3.837 3.291-4.246v-4.122C3.963 41.976.282 46.003.282 52.49c0 6.667 4.155 10.819 10.684 10.819 6.89 0 9.816-3.918 10.302-6.885h-6.286c-.383 1.27-1.434 2.696-4.015 2.696-2.6 0-4.289-2.123-4.342-5.398h14.947c.486-7.645-3.59-11.745-9.649-12.13m24.508 8.533-2.179-.334c-2.103-.349-3.47-.758-3.447-2.095.025-1.412 1.342-2.175 3.14-2.175 1.918 0 3.402 1.069 3.73 2.906h5.72c-.44-3.905-3.652-6.836-9.426-6.836-4.93 0-9.373 2.266-9.446 6.437-.08 4.513 3.514 5.734 6.92 6.261l2.388.373c2.27.367 3.698.954 3.676 2.225-.027 1.548-1.512 2.232-3.566 2.232-2.181 0-3.363-.715-3.842-2.696h-5.97c.272 3.738 4.011 6.885 9.738 6.885 5.684 0 9.967-2.043 10.05-6.706.082-4.735-3.663-5.852-7.486-6.477m108.05 0-2.179-.334c-2.103-.349-3.47-.758-3.447-2.095.025-1.412 1.342-2.175 3.14-2.175 1.919 0 3.402 1.069 3.73 2.906h5.72c-.439-3.905-3.651-6.836-9.426-6.836-4.931 0-9.373 2.266-9.446 6.437-.08 4.513 3.514 5.734 6.92 6.261l2.389.373c2.27.367 3.697.954 3.675 2.225-.027 1.548-1.512 2.232-3.566 2.232-2.181 0-3.363-.715-3.841-2.696h-5.97c.272 3.738 4.011 6.885 9.737 6.885 5.684 0 9.968-2.043 10.05-6.706.082-4.735-3.662-5.852-7.486-6.477M56.751 7.445v4.93c1.87.656 3.011 2.595 3.011 5.928 0 4.213-1.8 6.207-4.592 6.207-2.752 0-4.573-1.994-4.573-6.207 0-3.889 1.764-5.884 4.204-6.052v-4.58c-1.643.407-3.065 1.358-3.99 3.01h-.157V7.935h-5.94v27.932h6.198v-9.649h.157c1.237 1.907 3.276 2.943 6.209 2.943 5.004 0 8.802-4.156 8.802-10.88 0-6.703-3.86-11.02-9.328-10.836m2.32 34.133v4.93c1.869.656 3.01 2.595 3.01 5.928 0 4.213-1.8 6.207-4.592 6.207-2.752 0-4.573-1.994-4.573-6.207 0-3.889 1.764-5.884 4.204-6.052v-4.58c-1.643.407-3.065 1.358-3.99 3.01h-.157v-2.746h-5.94V70h6.198v-9.649h.157c1.237 1.908 3.276 2.943 6.209 2.943 5.003 0 8.801-4.155 8.801-10.88 0-6.702-3.86-11.019-9.327-10.836m39.032 0V45.7c2.027.405 3.181 2.145 3.307 4.246h-8.55c.126-2.099 1.278-3.837 3.291-4.246v-4.122c-6.009.383-9.689 4.41-9.689 10.897 0 6.667 4.155 10.819 10.683 10.819 6.891 0 9.817-3.918 10.302-6.885h-6.286c-.383 1.27-1.435 2.696-4.016 2.696-2.6 0-4.288-2.122-4.341-5.398h14.947c.487-7.644-3.589-11.744-9.648-12.13m24.508 8.534-2.179-.334c-2.103-.349-3.471-.758-3.447-2.095.025-1.412 1.342-2.175 3.14-2.175 1.918 0 3.402 1.069 3.729 2.905h5.72c-.439-3.904-3.651-6.835-9.426-6.835-4.93 0-9.372 2.266-9.445 6.437-.081 4.513 3.513 5.734 6.92 6.261l2.388.373c2.271.367 3.698.954 3.676 2.225-.027 1.548-1.513 2.232-3.567 2.232-2.18 0-3.362-.715-3.841-2.696h-5.97c.272 3.738 4.011 6.885 9.737 6.885 5.684 0 9.968-2.043 10.051-6.706.082-4.735-3.664-5.852-7.486-6.477"/></svg>