<svg width="240px" height="32px" viewBox="0 0 240 32" version="1.1" xmlns="http://www.w3.org/2000/svg" xmlns:xlink="http://www.w3.org/1999/xlink">
    <title>Wavemaker</title>
    <g id="Holding-Site" stroke="none" stroke-width="1" fill="none" fill-rule="evenodd">
        <g id="Home-1.4.3" transform="translate(-83.000000, -4107.000000)">
            <g id="logo-black" transform="translate(83.000000, 4107.000000)">
                <g id="WM_Logo_RGB_Reversed" transform="translate(0.000000, 0.000000)">
                    <path d="M231.615584,14.7007937 C231.615584,12.3606349 233.477922,10.4634921 235.775065,10.4634921 C238.072208,10.4634921 239.936104,12.3606349 239.936104,14.7007937 C239.936104,17.0411111 238.072208,18.938254 235.775065,18.938254 C233.477922,18.938254 231.615584,17.0411111 231.615584,14.7007937" id="Fill-1" fill="#FF8000"></path>
                    <path d="M223.145455,31.5795238 L229.801558,31.5795238 L229.801558,10.8719048 L223.145455,10.8719048 L223.145455,31.5795238 Z M205.41974,19.98 L213.158961,19.98 C212.839481,17.1209524 211.514805,15.4871429 209.35013,15.4871429 C207.144935,15.4871429 205.70026,17.1209524 205.41974,19.98 Z M219.615584,21.9404762 L205.380779,21.9404762 C205.541299,25.0853968 206.984416,26.9233333 209.35013,26.9233333 C211.315325,26.9233333 212.758442,25.8614286 213.199481,24.1050794 L219.615584,24.1050794 C218.853506,29.0473016 215.004156,31.9880952 209.35013,31.9880952 C202.773506,31.9880952 198.924156,27.9853968 198.924156,21.2052381 C198.924156,14.4252381 202.773506,10.4634921 209.35013,10.4634921 C215.806753,10.4634921 219.615584,14.4252381 219.615584,21.2052381 L219.615584,21.9404762 Z M199.084675,31.5795238 L191.144416,31.5795238 L183.846234,21.0011111 L183.765195,21.0011111 L183.765195,31.5795238 L177.109091,31.5795238 L177.109091,0.13 L183.765195,0.13 L183.765195,20.6334921 L183.846234,20.6334921 L190.461818,10.8719048 L198.082597,10.8719048 L191.024416,20.7150794 L199.084675,31.5795238 Z M166.161039,21.2052381 C166.161039,18.1420635 164.597922,15.7731746 161.990649,15.7731746 C159.344416,15.7731746 157.781299,17.8152381 157.781299,21.2052381 C157.781299,24.6361905 159.344416,26.6374603 161.990649,26.6374603 C164.597922,26.6374603 166.161039,24.3095238 166.161039,21.2052381 Z M172.538182,10.8719048 L172.538182,31.5795238 L165.880519,31.5795238 L165.880519,24.2685714 L165.801039,24.2685714 C165.801039,29.0880952 163.193766,31.9880952 158.742857,31.9880952 C153.891429,31.9880952 150.963117,27.9853968 150.963117,21.2052381 C150.963117,14.4661905 153.891429,10.4634921 158.742857,10.4634921 C163.193766,10.4634921 165.801039,13.322381 165.801039,18.1828571 L165.880519,18.1828571 L165.880519,10.8719048 L172.538182,10.8719048 Z M147.554805,18.9180952 L147.554805,31.5795238 L140.898701,31.5795238 L140.898701,19.2447619 C140.898701,17.0392063 139.815584,15.7731746 137.931429,15.7731746 C135.805714,15.7731746 134.562078,17.447619 134.562078,20.265873 L134.562078,31.5795238 L127.905974,31.5795238 L127.905974,19.2447619 C127.905974,17.0392063 126.782338,15.7731746 124.898026,15.7731746 C122.772468,15.7731746 121.529455,17.447619 121.529455,20.265873 L121.529455,31.5795238 L114.872571,31.5795238 L114.872571,10.8719048 L121.529455,10.8719048 L121.529455,18.2238095 L121.609558,18.2238095 C121.609558,13.3633333 123.975584,10.4634921 127.985455,10.4634921 C132.116883,10.4634921 134.562078,13.404127 134.562078,18.2238095 L134.643117,18.2238095 C134.643117,13.3633333 136.888831,10.4634921 140.738182,10.4634921 C145.028571,10.4634921 147.554805,13.608254 147.554805,18.9180952 Z M97.1481039,19.98 L104.887636,19.98 C104.566909,17.1209524 103.243481,15.4871429 101.078026,15.4871429 C98.8725195,15.4871429 97.4287792,17.1209524 97.1481039,19.98 Z M111.343948,21.9404762 L97.1082078,21.9404762 C97.2684156,25.0853968 98.712,26.9233333 101.078026,26.9233333 C103.043065,26.9233333 104.486649,25.8614286 104.927844,24.1050794 L111.343948,24.1050794 C110.582026,29.0473016 106.732364,31.9880952 101.078026,31.9880952 C94.5015584,31.9880952 90.6517403,27.9853968 90.6517403,21.2052381 C90.6517403,14.4252381 94.5015584,10.4634921 101.078026,10.4634921 C107.534338,10.4634921 111.343948,14.4252381 111.343948,21.2052381 L111.343948,21.9404762 Z M88.8872727,10.8719048 L84.396,31.5795238 L71.8843636,31.5795238 L67.3930909,10.8719048 L74.4911688,10.8719048 L78.1000519,31.1303175 L78.1801558,31.1303175 L81.7895065,10.8719048 L88.8872727,10.8719048 Z M57.9698182,21.2052381 C57.9698182,18.1420635 56.4059221,15.7731746 53.7994286,15.7731746 C51.1525714,15.7731746 49.5886753,17.8152381 49.5886753,21.2052381 C49.5886753,24.6361905 51.1525714,26.6374603 53.7994286,26.6374603 C56.4059221,26.6374603 57.9698182,24.3095238 57.9698182,21.2052381 Z M64.3458701,10.8719048 L64.3458701,31.5795238 L57.6891429,31.5795238 L57.6891429,24.2685714 L57.6088831,24.2685714 C57.6088831,29.0880952 55.0022338,31.9880952 50.551013,31.9880952 C45.698961,31.9880952 42.7714286,27.9853968 42.7714286,21.2052381 C42.7714286,14.4661905 45.698961,10.4634921 50.551013,10.4634921 C55.0022338,10.4634921 57.6088831,13.322381 57.6088831,18.1828571 L57.6891429,18.1828571 L57.6891429,10.8719048 L64.3458701,10.8719048 Z M41.608987,1.3552381 L36.837039,31.5795238 L24.4857662,31.5795238 L20.8365195,1.92714286 L20.7564156,1.92714286 L17.1475325,31.5795238 L4.79641558,31.5795238 L0.0643636364,1.3552381 L7.40290909,1.3552381 L11.4931948,31.0077778 L11.5734545,31.0077778 L15.5032208,1.3552381 L26.5712727,1.3552381 L30.5412468,31.0077778 L30.6215065,31.0077778 L34.6714286,1.3552381 L41.608987,1.3552381 L41.608987,1.3552381 Z" id="Fill-2" fill="#FFFFFF"></path>
                </g>
            </g>
        </g>
    </g>
</svg>